<svg xmlns="http://www.w3.org/2000/svg" width="308" height="221" version="1.0"><path d="M141 153.9c-6.3-.4-13.7-.8-16.5-.9-2.7-.2 4.5-.7 16-1.1 64.7-2.3 118.9-23.7 125.4-49.5 1.4-5.4.3-10.3-3.4-15.9-2.6-3.7-2.6-3.7.4-1.6 7.5 5.4 13 14.6 13.1 21.9.1 27.9-65.6 50.8-135 47.1zm-29.2-2.6c.6-.2 1.8-.2 2.5 0 .6.3.1.5-1.3.5-1.4 0-1.9-.2-1.2-.5zm-71.5-26.2c-10.2-9.6-12.6-20.3-6.8-29.7 9.4-15.2 37.3-27.7 74.3-33.4 20.7-3.2 43.9-4.3 63.1-3 9.1.7 16.8 1.4 17 1.6.2.2-6.3.4-14.5.4-54 0-105.3 15.1-125.7 36.9-9.4 10-10.3 18.6-3.3 29.4 2.6 3.9 1.6 3.4-4.1-2.2zm152.5-63.8c.6-.2 1.8-.2 2.5 0 .6.3.1.5-1.3.5-1.4 0-1.9-.2-1.2-.5z"/></svg>